<mxfile host="app.diagrams.net" modified="2024-03-21T14:05:10.541Z" agent="Mozilla/5.0 (Windows NT 10.0; Win64; x64) AppleWebKit/537.36 (KHTML, like Gecko) Chrome/120.0.0.0 Safari/537.36" version="24.0.7" etag="bAt-h20NFhuiF0d-5gRk" type="github">
  <diagram name="第 1 页" id="bbpqvIz8hhgAaL_JIfvn">
    <mxGraphModel>
      <root>
        <mxCell id="0" />
        <mxCell id="1" parent="0" />
      </root>
    </mxGraphModel>
  </diagram>
</mxfile>
